<?xml version="1.0" standalone="no"?>
<!DOCTYPE svg PUBLIC "-//W3C//DTD SVG 20010904//EN"
 "http://www.w3.org/TR/2001/REC-SVG-20010904/DTD/svg10.dtd">
<svg version="1.0" xmlns="http://www.w3.org/2000/svg"
 width="512.000000pt" height="512.000000pt" viewBox="0 0 512.000000 512.000000"
 preserveAspectRatio="xMidYMid meet">
<metadata>
Created by potrace 1.14, written by Peter Selinger 2001-2017
</metadata>
<g transform="translate(0.000000,512.000000) scale(0.100000,-0.100000)"
fill="#000000" stroke="none">
<path d="M393 5106 c-182 -44 -330 -191 -377 -373 -15 -56 -16 -269 -14 -2195
l3 -2133 22 -58 c58 -154 181 -274 329 -323 57 -18 115 -19 2209 -19 l2150 0
68 27 c166 67 279 194 322 364 14 54 15 300 13 2190 l-3 2129 -23 59 c-64 169
-213 300 -380 335 -82 17 -4248 14 -4319 -3z m1677 -986 l0 -280 -255 0 -255
0 0 -1560 0 -1560 -270 0 -270 0 0 1560 0 1560 -255 0 -255 0 0 280 0 280 780
0 780 0 0 -280z m732 -685 c59 -528 110 -984 114 -1012 4 -44 9 -53 25 -53 10
0 19 3 20 8 0 4 55 459 122 1012 l122 1005 195 0 195 0 122 -1005 c67 -553
122 -1008 122 -1012 1 -5 10 -8 20 -8 16 0 21 9 25 53 4 28 55 484 114 1012
l107 960 248 3 247 2 0 -23 c0 -20 -470 -3523 -486 -3619 l-6 -38 -208 0 -209
0 -6 33 c-3 17 -66 455 -140 971 -74 516 -137 941 -140 944 -3 3 -7 3 -10 0
-3 -3 -66 -428 -140 -944 -74 -517 -137 -954 -140 -971 l-6 -33 -209 0 -208 0
-6 38 c-16 96 -486 3598 -486 3619 l0 23 248 -2 247 -3 107 -960z"/>
</g>
</svg>
